<?xml version="1.0" encoding="utf-8"?>
<!-- Generator: Adobe Illustrator 21.0.0, SVG Export Plug-In . SVG Version: 6.00 Build 0)  -->
<svg version="1.1" id="Layer_1" xmlns="http://www.w3.org/2000/svg" xmlns:xlink="http://www.w3.org/1999/xlink" x="0px" y="0px"
	 viewBox="0 0 514.1 441.1" style="enable-background:new 0 0 514.1 441.1;" xml:space="preserve">
<style type="text/css">
	.st0{fill:#21242A;}
	.st1{fill:#1D2025;}
	.st2{opacity:0.91;fill:none;stroke:#000000;stroke-width:0.5;stroke-miterlimit:10;}
	.st3{fill:#2B2D33;}
	.st4{opacity:0.85;fill:#F1615B;}
	.st5{opacity:0.85;fill:#FEBD2F;}
	.st6{opacity:0.85;fill:#49B749;}
	.st7{fill:none;}
	.st8{fill:#4F4F4F;}
	.st9{font-family:'Courier';}
	.st10{font-size:9.6263px;}
</style>
<path class="st0" d="M510.1,439.1H4c-2.2,0-4-1.8-4-4V4c0-2.2,1.8-4,4-4h506.1c2.2,0,4,1.8,4,4v431.1
	C514.1,437.3,512.3,439.1,510.1,439.1z"/>
<path class="st1" d="M35.2,439.1H4c-2.2,0-4-1.8-4-4V14.4h35.2V439.1z"/>
<line class="st2" x1="35.9" y1="28.9" x2="35.9" y2="439.1"/>
<path class="st3" d="M514.1,28.9H0V4c0-2.2,1.8-4,4-4h506.1c2.2,0,4,1.8,4,4V28.9z"/>
<circle class="st4" cx="18.1" cy="15.1" r="4.3"/>
<circle class="st5" cx="32.6" cy="15.1" r="4.3"/>
<circle class="st6" cx="47.2" cy="15.1" r="4.3"/>
<rect y="37.7" class="st7" width="37" height="401.4"/>
<text transform="matrix(1 0 0 1 15.5933 43.854)"><tspan x="0" y="0" class="st8 st9 st10">1</tspan><tspan x="0" y="17.9" class="st8 st9 st10">2</tspan><tspan x="0" y="35.8" class="st8 st9 st10">3</tspan><tspan x="0" y="53.6" class="st8 st9 st10">4</tspan><tspan x="0" y="71.5" class="st8 st9 st10">5</tspan><tspan x="0" y="89.4" class="st8 st9 st10">6</tspan><tspan x="0" y="107.3" class="st8 st9 st10">7</tspan><tspan x="0" y="125.1" class="st8 st9 st10">8</tspan><tspan x="0" y="143" class="st8 st9 st10">9</tspan><tspan x="-2.9" y="160.9" class="st8 st9 st10">10</tspan><tspan x="-2.9" y="178.8" class="st8 st9 st10">11</tspan><tspan x="-2.9" y="196.7" class="st8 st9 st10">12</tspan><tspan x="-2.9" y="214.5" class="st8 st9 st10">13</tspan><tspan x="-2.9" y="232.4" class="st8 st9 st10">14</tspan><tspan x="-2.9" y="250.3" class="st8 st9 st10">15</tspan><tspan x="-2.9" y="268.2" class="st8 st9 st10">16</tspan><tspan x="-2.9" y="286" class="st8 st9 st10">17</tspan><tspan x="-2.9" y="303.9" class="st8 st9 st10">18</tspan><tspan x="-2.9" y="321.8" class="st8 st9 st10">19</tspan><tspan x="-2.9" y="339.7" class="st8 st9 st10">20</tspan><tspan x="-2.9" y="357.5" class="st8 st9 st10">21</tspan><tspan x="-2.9" y="375.4" class="st8 st9 st10">22</tspan></text>
</svg>
